<svg xmlns="http://www.w3.org/2000/svg" fill="none" viewBox="0 0 126 40" height="40" width="126">
<path fill="#667796" d="M36.8683 19.9743C38.691 20.1396 40.0981 20.6654 41.0695 21.5417C42.0459 22.418 42.5367 23.6097 42.5367 25.1169C42.5367 26.8145 41.9308 28.1314 40.714 29.0678C39.4972 30.0092 37.7897 30.4749 35.5964 30.4749C35.0256 30.4749 34.1443 30.4448 32.9675 30.3797C31.7908 30.3196 30.8945 30.2846 30.2886 30.2846C30.0382 30.2846 29.6026 30.2996 28.9466 30.3196C28.3006 30.3497 27.7799 30.3547 27.3993 30.3547C26.7684 30.3547 26.2877 30.2696 25.9622 30.0993C25.6417 29.9341 25.4715 29.6787 25.4715 29.3382C25.4715 28.9977 25.7118 28.7373 26.1975 28.542C26.6832 28.3517 26.9737 28.1865 27.0688 28.0563C27.199 27.851 27.3042 27.0899 27.3693 25.7729C27.4444 24.451 27.4744 22.6683 27.4744 20.435C27.4744 18.3469 27.4394 16.6444 27.3643 15.3225C27.2891 14.0005 27.189 13.2544 27.0738 13.0892C26.9787 12.959 26.6832 12.7937 26.2025 12.5985C25.7168 12.3931 25.4765 12.1278 25.4765 11.7873C25.4765 11.4468 25.6167 11.2014 25.8921 11.0412C26.1725 10.8809 26.5881 10.8008 27.1539 10.8008C27.4444 10.8008 27.9251 10.8058 28.5961 10.8158C29.2721 10.8208 29.7978 10.8308 30.1834 10.8308C30.8995 10.8308 31.8158 10.8108 32.9275 10.7657C34.0391 10.7207 34.7802 10.7006 35.1608 10.7006C37.1287 10.7006 38.6409 11.1062 39.7025 11.9275C40.764 12.7487 41.2898 13.9054 41.2898 15.4226C41.2898 16.6494 40.9093 17.6509 40.1531 18.4271C39.392 19.2082 38.3004 19.724 36.8633 19.9794L36.8683 19.9743ZM30.9295 19.3584C31.1949 19.3885 31.4653 19.4035 31.7357 19.4185C32.0061 19.4335 32.2915 19.4386 32.577 19.4386C34.3496 19.4386 35.6215 19.1682 36.3926 18.6324C37.1637 18.0966 37.5443 17.2253 37.5443 16.0135C37.5443 14.8017 37.1838 13.9855 36.4627 13.4197C35.7366 12.8538 34.625 12.5734 33.1228 12.5734C32.602 12.5734 32.1914 12.6085 31.8759 12.6886C31.5605 12.7687 31.3702 12.8789 31.2901 13.0141C31.1599 13.2594 31.0647 13.8052 31.0096 14.6465C30.9596 15.4877 30.9295 16.7846 30.9295 18.5322V19.3584ZM30.9295 21.3464V24.2557C30.9295 25.5225 30.9596 26.4089 31.0096 26.9096C31.0597 27.4103 31.1549 27.7809 31.2901 28.0262C31.3902 28.2315 31.6756 28.3818 32.1413 28.4819C32.602 28.5821 33.2229 28.6422 34.0091 28.6422C35.5013 28.6422 36.648 28.3317 37.4291 27.7058C38.2103 27.0798 38.6059 26.1835 38.6059 25.0018C38.6059 23.7099 38.1602 22.7685 37.2739 22.1576C36.3876 21.5467 35.0055 21.2462 33.1228 21.2462C32.7772 21.2462 32.4267 21.2512 32.0512 21.2763C31.6756 21.2813 31.3051 21.3113 30.9295 21.3464Z"></path>
<path fill="#667796" d="M48.4605 23.4244H48.2752C47.7644 23.4244 47.464 23.4595 47.3689 23.5396C47.2737 23.6197 47.2236 23.83 47.2236 24.1655C47.2236 25.2972 47.6342 26.2686 48.4454 27.0798C49.2667 27.891 50.2531 28.2966 51.4248 28.2966C51.9206 28.2966 52.4063 28.2265 52.877 28.0713C53.3477 27.9261 53.7933 27.6958 54.234 27.3903C54.3592 27.3052 54.5244 27.18 54.7297 27.0147C55.1854 26.6392 55.5409 26.4589 55.8013 26.4589C56.0066 26.4589 56.1669 26.524 56.297 26.6542C56.4272 26.7844 56.4973 26.9446 56.4973 27.1249C56.4973 27.3402 56.3822 27.6106 56.1518 27.9311C55.9265 28.2516 55.616 28.562 55.2305 28.8675C54.4343 29.5184 53.6632 29.9841 52.9221 30.2645C52.181 30.545 51.3748 30.6852 50.5135 30.6852C48.5656 30.6852 46.9382 30.0242 45.6263 28.7072C44.3244 27.3853 43.6734 25.7579 43.6734 23.805C43.6734 21.6819 44.3394 19.9393 45.6814 18.5673C47.0233 17.1952 48.7359 16.5142 50.829 16.5142C52.5916 16.5142 53.9936 17.015 55.0252 18.0064C56.0567 18.9979 56.5724 20.3499 56.5724 22.0474C56.5724 22.6082 56.4923 22.9688 56.3221 23.149C56.1518 23.3293 55.7312 23.4194 55.0402 23.4194H48.4655L48.4605 23.4244ZM48.1801 21.8722H52.6316C52.9821 21.8722 53.2175 21.8371 53.3277 21.772C53.4428 21.7019 53.4979 21.5667 53.4979 21.3664C53.4979 20.4901 53.2075 19.749 52.6116 19.1531C52.0207 18.5573 51.2696 18.2618 50.3633 18.2618C49.4569 18.2618 48.7759 18.5573 48.2051 19.1531C47.6342 19.749 47.3488 20.4851 47.3488 21.3664C47.3488 21.5717 47.3989 21.7019 47.5091 21.772C47.6192 21.8471 47.8396 21.8722 48.1851 21.8722H48.1801Z"></path>
<path fill="#667796" d="M57.634 23.815C57.634 21.7169 58.32 19.9793 59.697 18.5923C61.0741 17.2052 62.7866 16.5192 64.8446 16.5192C66.3469 16.5192 67.6288 16.9098 68.6803 17.6859C69.7419 18.4621 70.2676 19.3734 70.2676 20.42C70.2676 20.8406 70.1224 21.1811 69.827 21.4415C69.5366 21.7119 69.161 21.8421 68.7003 21.8421C68.2397 21.8421 67.8591 21.7319 67.5787 21.5166C67.2983 21.3013 66.9978 20.8206 66.6874 20.0795C66.3969 19.4285 66.0815 18.9678 65.7259 18.7175C65.3754 18.4621 64.9197 18.3319 64.3589 18.3319C63.2973 18.3319 62.4711 18.7225 61.8753 19.4986C61.2844 20.2748 60.9889 21.3714 60.9889 22.7685C60.9889 24.3858 61.4146 25.7078 62.2558 26.7193C63.0971 27.7358 64.1837 28.2516 65.5006 28.2516C65.9563 28.2516 66.3869 28.1915 66.7975 28.0713C67.2081 27.9461 67.5887 27.7759 67.9392 27.5355C68.0644 27.4504 68.2397 27.3202 68.465 27.1449C68.9507 26.7593 69.3313 26.5741 69.6167 26.5741C69.807 26.5741 69.9622 26.6342 70.0724 26.7343C70.1825 26.8445 70.2426 26.9947 70.2426 27.185C70.2426 27.4103 70.1475 27.6857 69.9522 28.0062C69.7619 28.3267 69.5115 28.6171 69.2111 28.8675C68.495 29.4934 67.7389 29.9541 66.9628 30.2545C66.1866 30.5499 65.3354 30.6952 64.429 30.6952C62.5012 30.6952 60.8988 30.0342 59.6019 28.7172C58.285 27.4053 57.634 25.7729 57.634 23.825V23.815Z"></path>
<path fill="#667796" d="M83.4071 26.5991C83.4071 27.1149 83.4522 27.5005 83.5373 27.7458C83.6274 28.0012 83.7626 28.1514 83.9479 28.2015C84.048 28.2366 84.1983 28.2716 84.3735 28.3167C84.9544 28.4769 85.2448 28.7022 85.2448 29.0077C85.2448 29.4433 84.9394 29.8339 84.3235 30.1894C83.7075 30.545 82.9915 30.7202 82.1753 30.7202C81.7747 30.7202 81.339 30.4799 80.8934 30.0092C80.4377 29.5385 80.2074 29.2981 80.1773 29.2981C80.0972 29.2981 79.8969 29.3983 79.5864 29.5936C78.4297 30.3397 77.2881 30.7152 76.1614 30.7152C74.8294 30.7152 73.7428 30.3296 72.9166 29.5635C72.0904 28.7974 71.6798 27.7859 71.6798 26.539C71.6798 25.0869 72.2156 23.9502 73.2771 23.139C74.3387 22.3278 75.8259 21.9222 77.7287 21.9222C78.0892 21.9222 78.4848 21.9423 78.9054 21.9823C79.3311 22.0174 79.7918 22.0775 80.2825 22.1576L80.2975 20.7204C80.2975 19.9243 80.1222 19.3084 79.7717 18.8727C79.4212 18.4471 78.9205 18.2268 78.2695 18.2268C77.8239 18.2268 77.4032 18.3219 77.0177 18.5172C76.6271 18.7125 76.2565 19.0179 75.896 19.4235C75.8209 19.5037 75.7257 19.6188 75.6056 19.7791C75.0497 20.4751 74.4639 20.8256 73.843 20.8256C73.4824 20.8256 73.197 20.7104 72.9767 20.4801C72.7664 20.2498 72.6562 19.9343 72.6562 19.5437C72.6562 18.6874 73.192 17.9764 74.2536 17.3905C75.3151 16.8097 76.6872 16.5142 78.3546 16.5142C79.3711 16.5142 80.2424 16.6444 80.9785 16.9148C81.7096 17.1852 82.2754 17.5658 82.676 18.0665C82.9464 18.417 83.1467 18.8627 83.2569 19.4235C83.372 19.9844 83.4271 20.9107 83.4271 22.2026V26.6091H83.4221L83.4071 26.5991ZM80.2675 23.8951C79.9069 23.815 79.5564 23.7599 79.2259 23.7199C78.8904 23.6848 78.575 23.6598 78.2745 23.6598C77.2931 23.6598 76.5219 23.8751 75.9661 24.3108C75.4103 24.7464 75.1399 25.3473 75.1399 26.1084C75.1399 26.8695 75.3802 27.4053 75.8559 27.841C76.3316 28.2766 76.9776 28.4919 77.7888 28.4919C78.6801 28.4919 79.3261 28.2966 79.7066 27.9061C80.0872 27.5155 80.2775 26.8495 80.2775 25.8981L80.2625 23.8901L80.2675 23.8951Z"></path>
<path fill="#667796" d="M95.4699 29.8589V28.8925C95.4699 28.8575 95.4649 28.8324 95.4499 28.8274C95.4348 28.8224 95.4198 28.8124 95.3898 28.8124C95.2896 28.8124 95.1194 28.9276 94.899 29.1529C94.8189 29.238 94.7588 29.3031 94.7138 29.3482C94.2831 29.7888 93.7924 30.1243 93.2366 30.3397C92.6808 30.555 92.0648 30.6651 91.3888 30.6651C90.7128 30.6651 90.0469 30.5349 89.446 30.2796C88.8451 30.0242 88.3393 29.6637 87.9388 29.193C87.5081 28.6772 87.2077 28.0563 87.0224 27.3302C86.8371 26.5991 86.752 25.2622 86.752 23.3143C86.752 23.134 86.757 22.8286 86.767 22.4029C86.772 21.9773 86.782 21.6418 86.782 21.3964V21.121C86.782 20.3749 86.732 19.8942 86.6218 19.6939C86.5217 19.4886 86.3013 19.3234 85.9608 19.2082C85.8306 19.1581 85.6454 19.0981 85.42 19.043C84.8993 18.9028 84.6439 18.6724 84.6439 18.3519C84.6439 18.1266 84.739 17.9363 84.9243 17.7861C85.1096 17.6359 85.5252 17.4506 86.1611 17.2353C86.8071 17.025 87.423 16.8597 88.0189 16.7346C88.6198 16.6094 89.1005 16.5443 89.486 16.5443C89.7364 16.5443 89.9117 16.6394 90.0218 16.8197C90.132 17 90.1821 17.2904 90.1821 17.696C90.1821 17.7461 90.1771 17.9263 90.152 18.2318C90.0619 19.8992 90.0218 21.5967 90.0218 23.3093C90.0218 25.157 90.2121 26.4439 90.6027 27.1449C90.9933 27.846 91.6492 28.2015 92.5806 28.2015C93.6372 28.2015 94.3883 27.7458 94.8439 26.8295C95.2996 25.9181 95.525 24.3508 95.525 22.1325V21.086C95.525 20.385 95.4749 19.9243 95.3697 19.709C95.2696 19.4986 95.0643 19.3334 94.7488 19.2232C94.6086 19.1732 94.4283 19.1131 94.193 19.058C93.6822 18.9178 93.4319 18.6874 93.4319 18.367C93.4319 18.1517 93.522 17.9664 93.7023 17.8162C93.8875 17.6659 94.2931 17.4757 94.9341 17.2503C95.58 17.04 96.1959 16.8748 96.7818 16.7496C97.3677 16.6244 97.8434 16.5593 98.2039 16.5593C98.4843 16.5593 98.6796 16.6444 98.7898 16.8147C98.8999 16.9799 98.95 17.2804 98.95 17.706C98.95 17.8011 98.945 18.0565 98.92 18.4621C98.8198 20.39 98.7597 22.2627 98.7597 24.0754C98.7597 25.2071 98.7647 25.9682 98.7898 26.3688C98.8048 26.7694 98.8349 27.0648 98.8699 27.2751C98.945 27.6507 99.2054 27.9261 99.6761 28.1114H99.6911C99.7412 28.1264 99.8313 28.1564 99.9415 28.1915C100.462 28.3667 100.718 28.6071 100.718 28.9075C100.718 29.1128 100.638 29.2831 100.477 29.4383C100.317 29.5886 100.037 29.7438 99.641 29.904C98.965 30.1644 98.3141 30.3747 97.6882 30.5299C97.0572 30.6902 96.5815 30.7603 96.246 30.7603C95.9806 30.7603 95.7903 30.6902 95.6652 30.55C95.54 30.3747 95.4799 30.1594 95.4799 29.8589H95.4699Z"></path>
<path fill="#667796" d="M104.323 30.3747C104.178 30.4899 104.033 30.57 103.897 30.6201C103.757 30.6702 103.627 30.7002 103.482 30.7002C103.392 30.7002 103.296 30.6802 103.201 30.6351C103.106 30.5901 103.011 30.535 102.911 30.4549C102.61 30.1995 102.33 29.7088 102.07 28.9827C101.804 28.2516 101.674 27.5556 101.674 26.8796C101.674 26.5891 101.754 26.3488 101.909 26.1535C102.07 25.9582 102.26 25.8631 102.49 25.8631C102.916 25.8631 103.342 26.2236 103.772 26.9597C103.982 27.3202 104.163 27.5956 104.298 27.7809C104.568 28.1364 104.944 28.4168 105.42 28.6272C105.895 28.8375 106.401 28.9376 106.952 28.9376C107.558 28.9376 108.033 28.7874 108.389 28.4869C108.739 28.1915 108.915 27.7859 108.915 27.2852C108.915 26.519 108.144 25.7679 106.606 25.0469C106.271 24.8866 106.005 24.7664 105.815 24.6713C104.378 23.9703 103.422 23.3143 102.916 22.7284C102.42 22.1326 102.16 21.4065 102.16 20.5552C102.16 19.3735 102.57 18.4071 103.397 17.661C104.223 16.9149 105.299 16.5443 106.641 16.5443C106.962 16.5443 107.292 16.5593 107.618 16.5944C107.938 16.6294 108.269 16.6895 108.594 16.7596C108.85 16.6445 109.065 16.5643 109.24 16.5143C109.415 16.4642 109.556 16.4341 109.666 16.4341C110.112 16.4341 110.552 16.7897 110.978 17.5057C111.403 18.2168 111.614 18.9729 111.614 19.744C111.614 20.0645 111.539 20.3149 111.403 20.4901C111.263 20.6704 111.058 20.7605 110.798 20.7605C110.587 20.7605 110.382 20.6754 110.177 20.5052C109.971 20.3399 109.731 20.0244 109.451 19.5838C109.105 19.023 108.755 18.6424 108.389 18.4171C108.023 18.1917 107.593 18.0816 107.077 18.0816C106.561 18.0816 106.111 18.2268 105.79 18.5222C105.47 18.8177 105.299 19.2032 105.299 19.6839C105.299 20.0895 105.46 20.4601 105.79 20.7806C106.121 21.101 106.862 21.5517 108.008 22.1125L108.169 22.1926C110.717 23.4395 111.989 24.7965 111.989 26.2587C111.989 27.5205 111.499 28.5721 110.517 29.4183C109.536 30.2646 108.314 30.6852 106.847 30.6852C106.541 30.6852 106.181 30.6551 105.765 30.6001C105.365 30.55 104.879 30.4699 104.338 30.3697L104.323 30.3747Z"></path>
<path fill="#667796" d="M117.893 23.5622H117.708C117.197 23.5622 116.897 23.5972 116.801 23.6774C116.706 23.7575 116.656 23.9678 116.656 24.3033C116.656 25.435 117.067 26.4064 117.878 27.2176C118.699 28.0288 119.686 28.4344 120.857 28.4344C121.353 28.4344 121.839 28.3643 122.31 28.2091C122.78 28.0638 123.226 27.8335 123.667 27.5281C123.792 27.4429 123.957 27.3177 124.162 27.1525C124.618 26.7769 124.974 26.5967 125.234 26.5967C125.439 26.5967 125.599 26.6618 125.73 26.792C125.86 26.9222 125.925 27.0824 125.925 27.2627C125.925 27.478 125.81 27.7484 125.579 28.0688C125.354 28.3893 125.044 28.6998 124.658 29.0052C123.862 29.6562 123.091 30.1219 122.35 30.4023C121.609 30.6827 120.802 30.8229 119.941 30.8229C117.993 30.8229 116.366 30.1619 115.059 28.845C113.757 27.523 113.101 25.8956 113.101 23.9428C113.101 21.8196 113.767 20.077 115.109 18.705C116.451 17.333 118.163 16.652 120.257 16.652C122.019 16.652 123.421 17.1527 124.453 18.1442C125.484 19.1357 126 20.4876 126 22.1852C126 22.746 125.92 23.1065 125.75 23.2868C125.579 23.4671 125.159 23.5572 124.468 23.5572H117.893V23.5622ZM117.613 22.0099H122.064C122.415 22.0099 122.65 21.9748 122.76 21.9097C122.875 21.8396 122.93 21.7044 122.93 21.5042C122.93 20.6279 122.64 19.8868 122.044 19.2909C121.453 18.695 120.702 18.3996 119.796 18.3996C118.89 18.3996 118.209 18.695 117.638 19.2909C117.067 19.8868 116.781 20.6228 116.781 21.5042C116.781 21.7095 116.831 21.8396 116.942 21.9097C117.052 21.9849 117.277 22.0099 117.618 22.0099H117.613Z"></path>
<path fill="#667796" d="M0.0234785 8.4317C0.0117392 8.46692 0 8.50801 0 8.5491V31.3467C0 31.4348 0.0410874 31.5228 0.0997836 31.5874L8.49334 39.8988C8.62834 40.0338 8.84552 40.0338 8.98052 39.8988L18.2897 30.6834C19.4461 29.5389 19.4461 27.6782 18.2897 26.5277L0.0234785 8.4317Z"></path>
<path fill="#0AE5DA" d="M18.4306 9.65846L8.74571 0.061631C8.65766 -0.0205437 8.52266 -0.0205437 8.43462 0.061631L0.792371 7.6217L12.4436 19.1614L18.4365 13.2331C19.4343 12.247 19.4343 10.6446 18.4365 9.65846H18.4306Z"></path>
</svg>